<?xml version="1.0" encoding="UTF-8" standalone="no"?>
<svg
   xmlns:dc="http://purl.org/dc/elements/1.1/"
   xmlns:cc="http://creativecommons.org/ns#"
   xmlns:rdf="http://www.w3.org/1999/02/22-rdf-syntax-ns#"
   xmlns:svg="http://www.w3.org/2000/svg"
   xmlns="http://www.w3.org/2000/svg"
   xmlns:sodipodi="http://sodipodi.sourceforge.net/DTD/sodipodi-0.dtd"
   xmlns:inkscape="http://www.inkscape.org/namespaces/inkscape"
   width="64"
   height="64"
   viewBox="0 0 16.933333 16.933333"
   version="1.1"
   id="svg1118"
   inkscape:version="1.0 (4035a4fb49, 2020-05-01)"
   sodipodi:docname="launch64.svg">
  <defs
     id="defs1112">
    <filter
       height="1.0646737"
       y="-0.032336844"
       width="1.0585143"
       x="-0.029257141"
       id="filter2551"
       style="color-interpolation-filters:sRGB"
       inkscape:collect="always">
      <feGaussianBlur
         id="feGaussianBlur2553"
         stdDeviation="0.13546666"
         inkscape:collect="always" />
    </filter>
    <filter
       height="1.0646737"
       y="-0.032336844"
       width="1.0585143"
       x="-0.029257141"
       id="filter2555"
       style="color-interpolation-filters:sRGB"
       inkscape:collect="always">
      <feGaussianBlur
         id="feGaussianBlur2557"
         stdDeviation="0.13546666"
         inkscape:collect="always" />
    </filter>
  </defs>
  <sodipodi:namedview
     showguides="false"
     id="base"
     pagecolor="#ffffff"
     bordercolor="#666666"
     borderopacity="1.0"
     inkscape:pageopacity="0.0"
     inkscape:pageshadow="2"
     inkscape:zoom="1.3946819"
     inkscape:cx="-14.878093"
     inkscape:cy="91.032155"
     inkscape:document-units="mm"
     inkscape:current-layer="layer1"
     inkscape:document-rotation="0"
     showgrid="true"
     units="px"
     inkscape:snap-smooth-nodes="true"
     inkscape:snap-grids="true"
     inkscape:window-width="1366"
     inkscape:window-height="713"
     inkscape:window-x="0"
     inkscape:window-y="0"
     inkscape:window-maximized="1">
    <inkscape:grid
       type="xygrid"
       id="grid1681"
       empspacing="4" />
  </sodipodi:namedview>
  <metadata
     id="metadata1115">
    <rdf:RDF>
      <cc:Work
         rdf:about="">
        <dc:format>image/svg+xml</dc:format>
        <dc:type
           rdf:resource="http://purl.org/dc/dcmitype/StillImage" />
        <dc:title />
      </cc:Work>
    </rdf:RDF>
  </metadata>
  <g
     inkscape:label="Capa 1"
     inkscape:groupmode="layer"
     id="layer1">
    <path
       d="M -8.2979346,0.39635431 V 0.66094421 2.513024 a 2.1166669,2.1166669 0 0 0 2.11666,2.116671 h 1.8520901 0.2645799 V 4.365104 3.835944 3.571354 h -0.2645799 -1.8520901 a 1.0583334,1.0583334 0 0 1 -1.05833,-1.05833 V 0.66094421 0.39635431 h -0.26458 -0.52917 z"
       style="opacity:1;fill:#ff318b;fill-opacity:1;stroke:none;stroke-width:0.105833;stroke-linecap:round;stroke-linejoin:round;stroke-miterlimit:4;stroke-dasharray:none;stroke-opacity:1;paint-order:markers stroke fill"
       id="path1616" />
    <path
       d="m -4.7680939,7.1514039 v 0.26458 1.8520897 a 1.0583334,1.0583334 0 0 0 1.04231,1.0583304 h 0.016 v -0.26458 -1.8520901 a 1.0583334,1.0583334 0 0 0 -1.042309,-1.05833 z"
       style="opacity:1;fill:#00ccff;fill-opacity:1;stroke:none;stroke-width:0.105833;stroke-linecap:round;stroke-linejoin:round;stroke-miterlimit:4;stroke-dasharray:none;stroke-opacity:1;paint-order:markers stroke fill"
       id="path1618" />
    <rect
       rx="1.0583314"
       style="opacity:0.3;fill:#000000;fill-opacity:1;stroke-width:0.132292;stroke-linecap:round;stroke-linejoin:round;paint-order:markers stroke fill;filter:url(#filter2551)"
       id="rect2389"
       width="10.054167"
       height="10.054165"
       x="2.6458333"
       y="4.4979186"
       ry="1.0583314" />
    <rect
       rx="1.0583341"
       ry="1.0583335"
       y="4.2333331"
       x="2.6458335"
       height="10.054166"
       width="10.054167"
       id="rect2383"
       style="fill:#0098d7;fill-opacity:1;stroke-width:0.132292;stroke-linecap:round;stroke-linejoin:round;paint-order:markers stroke fill" />
    <rect
       rx="1.0583338"
       y="2.9104178"
       x="4.2333331"
       height="10.054166"
       width="10.054167"
       id="rect2387"
       style="opacity:0.3;fill:#000000;fill-opacity:1;stroke-width:0.132292;stroke-linecap:round;stroke-linejoin:round;paint-order:markers stroke fill;filter:url(#filter2555)"
       ry="1.0583322" />
    <rect
       rx="1.0583338"
       ry="1.0583322"
       style="fill:#f2f2f2;fill-opacity:1;stroke-width:0.132292;stroke-linecap:round;stroke-linejoin:round;paint-order:markers stroke fill"
       id="rect2385"
       width="10.054167"
       height="10.054167"
       x="4.2333331"
       y="2.6458344" />
    <path
       sodipodi:nodetypes="ssssccssscsssscssccscs"
       d="m 5.4636083,9.7439034 c -0.1912209,0.1912201 -0.1912214,0.4991066 0,0.6903286 l 0.6903288,0.69033 c 0.1912211,0.191221 0.4991081,0.19122 0.6903288,0 l 1.0354932,-1.035494 0.345165,0.345164 0.6903283,0.69033 c 0.095611,0.09561 0.220388,0.143414 0.3451651,0.143414 0.124777,0 0.2495531,-0.04781 0.3451641,-0.143414 l 1.0354934,-1.035494 1.035494,1.035494 c 0.191221,0.19122 0.499107,0.191221 0.690328,0 l 0.690328,-0.69033 c 0.191221,-0.191221 0.191221,-0.4991085 0,-0.6903286 L 11.676569,8.3632455 10.986239,7.6729167 c -0.191221,-0.1912214 -0.499108,-0.1912206 -0.690329,0 L 9.2604165,8.70841 8.2249241,7.6729167 c -0.1912219,-0.1912214 -0.4991085,-0.1912206 -0.6903293,0 L 6.8442659,8.3632455 Z"
       style="opacity:1;fill:#eb2865;fill-opacity:1;stroke:none;stroke-width:0.132292;stroke-linecap:round;stroke-linejoin:round;paint-order:markers stroke fill"
       id="rect2622" />
    <path
       transform="scale(0.26458333)"
       d="M 44 14 L 44 16 L 46.478516 16 L 43.945312 18.382812 L 45.314453 19.839844 L 48 17.314453 L 48 20 L 50 20 L 50 16 L 50 14 L 48 14 L 44 14 z "
       style="opacity:1;fill:#eb2865;fill-opacity:1;stroke:none;stroke-width:0.500001;stroke-linecap:round;stroke-linejoin:round;paint-order:markers stroke fill"
       id="rect2656" />
  </g>
</svg>
